<?xml version="1.0" encoding="UTF-8" standalone="no"?>
<svg
   xmlns:dc="http://purl.org/dc/elements/1.1/"
   xmlns:cc="http://creativecommons.org/ns#"
   xmlns:rdf="http://www.w3.org/1999/02/22-rdf-syntax-ns#"
   xmlns:svg="http://www.w3.org/2000/svg"
   xmlns="http://www.w3.org/2000/svg"
   xmlns:xlink="http://www.w3.org/1999/xlink"
   xmlns:sodipodi="http://sodipodi.sourceforge.net/DTD/sodipodi-0.dtd"
   xmlns:inkscape="http://www.inkscape.org/namespaces/inkscape"
   height="660"
   width="600"
   version="1.0"
   id="svg2"
   sodipodi:version="0.32"
   inkscape:version="0.46"
   sodipodi:docname="Aoste1.svg"
   sodipodi:docbase="C:\Documents and Settings\Moi\Bureau\PROVISOIRE\HERALDIQUE\divers\Projet Blason"
   inkscape:export-filename="/Users/olivier/Desktop/Blason Rouge/Blason_Vide_3D.png"
   inkscape:export-xdpi="144"
   inkscape:export-ydpi="144"
   inkscape:output_extension="org.inkscape.output.svg.inkscape">
  <metadata
     id="metadata49">
    <rdf:RDF>
      <cc:Work
         rdf:about="">
        <dc:format>image/svg+xml</dc:format>
        <dc:type
           rdf:resource="http://purl.org/dc/dcmitype/StillImage" />
        <dc:title>Proposition de blason pour le &quot;Projet blason&quot; de la Wikipedia francophone</dc:title>
        <dc:date />
        <dc:creator>
          <cc:Agent>
            <dc:title>Orror</dc:title>
          </cc:Agent>
        </dc:creator>
        <cc:license
           rdf:resource="http://creativecommons.org/licenses/by-sa/2.5/" />
        <dc:language>fr</dc:language>
        <dc:subject>
          <rdf:Bag />
        </dc:subject>
      </cc:Work>
      <cc:License
         rdf:about="http://creativecommons.org/licenses/by-sa/2.5/">
        <cc:permits
           rdf:resource="http://web.resource.org/cc/Reproduction" />
        <cc:permits
           rdf:resource="http://web.resource.org/cc/Distribution" />
        <cc:requires
           rdf:resource="http://web.resource.org/cc/Notice" />
        <cc:requires
           rdf:resource="http://web.resource.org/cc/Attribution" />
        <cc:permits
           rdf:resource="http://web.resource.org/cc/DerivativeWorks" />
        <cc:requires
           rdf:resource="http://web.resource.org/cc/ShareAlike" />
      </cc:License>
    </rdf:RDF>
  </metadata>
  <sodipodi:namedview
     inkscape:window-height="1151"
     inkscape:window-width="1920"
     inkscape:pageshadow="2"
     inkscape:pageopacity="0.0"
     guidetolerance="10.0"
     gridtolerance="10.0"
     objecttolerance="10.0"
     borderopacity="1.0"
     bordercolor="#666666"
     pagecolor="#ffffff"
     id="base"
     showgrid="false"
     height="660px"
     inkscape:zoom="1.469697"
     inkscape:cx="300.00001"
     inkscape:cy="330.00001"
     inkscape:window-x="1600"
     inkscape:window-y="22"
     inkscape:current-layer="layer3"
     showguides="true"
     inkscape:guide-bbox="true" />
  <desc
     id="desc4">Flag of Canton of Valais (Wallis)</desc>
  <defs
     id="defs6">
    <linearGradient
       id="linearGradient2893">
      <stop
         style="stop-color:white;stop-opacity:0.3137255;"
         offset="0"
         id="stop2895" />
      <stop
         id="stop2897"
         offset="0.19"
         style="stop-color:white;stop-opacity:0.25098041;" />
      <stop
         style="stop-color:#6b6b6b;stop-opacity:0.1254902;"
         offset="0.60000002"
         id="stop2901" />
      <stop
         style="stop-color:black;stop-opacity:0.1254902;"
         offset="1"
         id="stop2899" />
    </linearGradient>
    <radialGradient
       inkscape:collect="always"
       xlink:href="#linearGradient2893"
       id="radialGradient3163"
       gradientUnits="userSpaceOnUse"
       gradientTransform="matrix(1.353218,0,0,1.348928,539.97214,-152.16803)"
       cx="221.44487"
       cy="226.33101"
       fx="221.44487"
       fy="226.33101"
       r="300" />
  </defs>
  <g
     inkscape:groupmode="layer"
     id="layer3"
     inkscape:label="Fond écu"
     style="display:inline"
     transform="translate(-617.60149,66.421106)">
    <path
       sodipodi:nodetypes="cccccc"
       d="M 917.36263,592.97383 C 917.36263,592.97383 1215.8626,480.65352 1215.8626,195.202 C 1215.8626,-90.249497 1215.8626,-63.349675 1215.8626,-63.349675 L 618.86263,-63.349675 L 618.86263,195.202 C 618.86263,480.65352 917.36263,592.97383 917.36263,592.97383 z"
       style="opacity:1;fill:#2b5df2;fill-opacity:1;fill-rule:evenodd;stroke:none;stroke-width:3;stroke-linecap:butt;stroke-linejoin:miter;stroke-miterlimit:4;stroke-dasharray:none;stroke-opacity:1;display:inline"
       id="path3295"
       inkscape:export-xdpi="144"
       inkscape:export-ydpi="144" />
    <g
       id="g2482"
       transform="translate(470.84536,51.71134)">
      <path
         inkscape:transform-center-y="36.793458"
         inkscape:transform-center-x="-48.811745"
         sodipodi:nodetypes="csssscssss"
         id="path3322"
         d="M 433.47222,49.032734 L 424.27992,65.715869 C 408.60239,94.169083 445.71441,103.41383 456.42691,82.747483 L 465.92474,64.424459 C 478.35384,40.446493 448.19235,22.317097 433.47222,49.032734 z M 456.80829,59.293739 L 447.22157,76.766483 C 442.50975,85.354223 426.04326,85.386403 433.89207,70.158173 L 442.77066,52.931944 C 449.43856,39.994907 462.59322,48.750157 456.80829,59.293739 z"
         style="fill:#fcef3c;fill-opacity:1;fill-rule:evenodd;stroke:#000000;stroke-width:3;stroke-linecap:butt;stroke-linejoin:miter;stroke-miterlimit:4;stroke-dasharray:none;stroke-opacity:1;display:inline" />
      <path
         inkscape:transform-center-y="27.757464"
         inkscape:transform-center-x="43.344297"
         sodipodi:nodetypes="csssscssss"
         id="path2476"
         d="M 422.99279,143.00455 L 431.5797,160.00721 C 446.22474,189.00536 474.7977,163.58188 463.78001,143.07661 L 454.01159,124.8964 C 441.2284,101.10532 409.24209,115.77725 422.99279,143.00455 z M 444.63169,129.52797 L 453.64795,147.3018 C 458.07938,156.03753 448.81474,169.65048 440.67093,154.57795 L 431.45864,137.52785 C 424.54013,124.72308 439.19101,118.8027 444.63169,129.52797 z"
         style="fill:#fcef3c;fill-opacity:1;fill-rule:evenodd;stroke:#000000;stroke-width:3;stroke-linecap:butt;stroke-linejoin:miter;stroke-miterlimit:4;stroke-dasharray:none;stroke-opacity:1;display:inline" />
      <path
         inkscape:transform-center-y="2.999394"
         inkscape:transform-center-x="-52.305081"
         sodipodi:nodetypes="ccccc"
         id="path2472"
         d="M 444.32193,78.594674 L 444.82729,131.27141 C 444.25198,135.8635 434.80661,138.4171 431.6233,131.29062 L 431.11797,78.613884 C 432.02915,73.772884 442.65935,72.171024 444.32193,78.594674 z"
         style="fill:#fcef3c;fill-opacity:1;fill-rule:evenodd;stroke:#000000;stroke-width:3;stroke-miterlimit:4;stroke-opacity:1;display:inline" />
      <path
         sodipodi:nodetypes="ccccc"
         id="path2474"
         d="M 498.67019,31.043055 L 453.58812,58.295598 C 449.34278,60.138243 442.33626,53.308558 446.84947,46.940584 L 491.93156,19.688066 C 496.56213,18.007788 503.35267,26.341795 498.67019,31.043055 z"
         style="fill:#fcef3c;fill-opacity:1;fill-rule:evenodd;stroke:#000000;stroke-width:3;stroke-miterlimit:4;stroke-opacity:1;display:inline" />
      <path
         inkscape:transform-center-y="65.376892"
         inkscape:transform-center-x="17.625866"
         sodipodi:nodetypes="ccssscsss"
         id="path2480"
         d="M 500.72157,210.79132 L 504.1463,200.37755 L 484.67633,195.63157 C 470.53606,192.18475 476.22512,176.89614 487.69317,180.51779 L 506.88324,186.57808 L 510.49161,177.21819 C 501.14949,171.28087 493.87763,171.3056 490.62561,170.47614 C 464.45557,163.80123 453.02063,199.86472 482.98461,205.57153 C 490.20221,206.94616 495.18005,210.03467 500.72157,210.79132 z"
         style="fill:#fcef3c;fill-opacity:1;fill-rule:evenodd;stroke:#000000;stroke-width:3;stroke-linecap:butt;stroke-linejoin:miter;stroke-miterlimit:4;stroke-dasharray:none;stroke-opacity:1;display:inline" />
      <path
         sodipodi:nodetypes="ccccc"
         id="path2478"
         d="M 452.2826,146.5247 L 489.97602,183.32552 C 492.82503,186.97263 487.97209,195.46879 480.67533,192.69797 L 442.98193,155.89713 C 440.19342,151.83637 446.55674,143.17178 452.2826,146.5247 z"
         style="fill:#fcef3c;fill-opacity:1;fill-rule:evenodd;stroke:#000000;stroke-width:3.00000024;stroke-miterlimit:4;stroke-opacity:1;display:inline" />
    </g>
    <use
       x="0"
       y="0"
       xlink:href="#g2482"
       id="use2490"
       transform="matrix(-1,0,0,1,2093.6229,0.6804123)"
       width="600"
       height="660" />
    <path
       style="fill:#fcef3c;fill-opacity:1;fill-rule:evenodd;stroke:#000000;stroke-width:3.00000072;stroke-linecap:butt;stroke-linejoin:miter;stroke-miterlimit:4;stroke-dasharray:none;stroke-opacity:1"
       d="M 1164.3936,-32.131881 L 935.23969,-32.131881 L 932.44514,78.766482 C 934.21477,135.39633 986.89646,208.15973 1048.8888,227.13024 C 1110.3879,206.54766 1164.4175,132.19999 1164.829,80.708151 L 1164.3936,-32.131881 z"
       id="path1875"
       sodipodi:nodetypes="cccccc" />
  </g>
  <g
     inkscape:groupmode="layer"
     id="layer4"
     inkscape:label="Meubles"
     transform="translate(-617.60149,66.421106)">
    <g
       style="fill:#ffffff;display:inline"
       id="g2467"
       transform="matrix(0.6615128,-7.943995e-2,6.7523563e-2,0.7099843,397.06291,-121.60747)">
      <g
         style="fill:#ffffff"
         id="g2524"
         transform="matrix(-0.9956193,9.5311203e-2,-9.1722193e-2,-0.9956193,808.26679,943.75688)">
        <path
           sodipodi:nodetypes="ccccc"
           id="path4629"
           d="M -51.457004,206.89299 L -180.03357,333.30444 L -153.20575,356.70111 L -34.312114,222.28331 C -19.989084,208.1223 -38.144664,193.43265 -51.457004,206.89299 z"
           style="fill:#ffffff;fill-opacity:1;fill-rule:evenodd;stroke:#000000;stroke-width:6.15128899000000030;stroke-linecap:butt;stroke-linejoin:miter;marker:none;marker-start:none;marker-mid:none;marker-end:none;stroke-miterlimit:4;stroke-dasharray:none;stroke-dashoffset:0;stroke-opacity:0.99591830000000003;visibility:visible;display:inline;overflow:visible" />
        <path
           sodipodi:nodetypes="ccccc"
           id="path4631"
           d="M -155.11599,356.98001 C -151.81742,371.39207 -163.59039,379.3346 -179.86965,385.57439 L -207.0657,361.90098 C -210.05245,350.15767 -202.03939,335.21145 -181.94381,333.58335 L -155.11599,356.98001 z"
           style="fill:#ffffff;fill-opacity:1;fill-rule:evenodd;stroke:#000000;stroke-width:6.15128899000000030;stroke-linecap:butt;stroke-linejoin:miter;marker:none;marker-start:none;marker-mid:none;marker-end:none;stroke-miterlimit:4;stroke-dasharray:none;stroke-dashoffset:0;stroke-opacity:0.99591830000000003;visibility:visible;display:inline;overflow:visible" />
        <path
           style="fill:#ffffff;fill-opacity:1;fill-rule:evenodd;stroke:#000000;stroke-width:6.15128899;stroke-linecap:butt;stroke-linejoin:miter;marker:none;marker-start:none;marker-mid:none;marker-end:none;stroke-miterlimit:4;stroke-dasharray:none;stroke-dashoffset:0;stroke-opacity:0.9959183;visibility:visible;display:inline;overflow:visible"
           d="M -178.1247,382.27262 C -177.83401,397.95839 -193.09639,416.56166 -212.23012,419.70781 C -229.04103,422.47204 -238.28784,451.68007 -237.58733,473.78989 C -258.50885,430.35209 -265.07345,386.96518 -210.27537,359.16542 L -178.1247,382.27262 z"
           id="path4633"
           sodipodi:nodetypes="csccc" />
        <path
           style="fill:#ffffff;fill-opacity:1;fill-rule:evenodd;stroke:#000000;stroke-width:3.07564449000000020;stroke-linecap:butt;stroke-linejoin:miter;marker:none;marker-start:none;marker-mid:none;marker-end:none;stroke-miterlimit:4;stroke-dasharray:none;stroke-dashoffset:0;stroke-opacity:0.99591830000000003;visibility:visible;display:inline;overflow:visible"
           d="M -35.353074,209.74086 C -33.630364,212.36388 -36.386034,214.9511 -38.767644,217.82852 L -157.36463,349.64546"
           id="path4646"
           sodipodi:nodetypes="ccc" />
        <path
           style="fill:#ffffff;fill-opacity:1;fill-rule:evenodd;stroke:#000000;stroke-width:3.07564449000000020;stroke-linecap:butt;stroke-linejoin:miter;marker:none;marker-start:none;marker-mid:none;marker-end:none;stroke-miterlimit:4;stroke-dasharray:none;stroke-dashoffset:0;stroke-opacity:0.99591830000000003;visibility:visible;display:inline;overflow:visible"
           d="M -160.77591,354.62707 C -160.74286,363.16056 -164.95731,369.85673 -176.05368,375.5507"
           id="path4648"
           sodipodi:nodetypes="cc" />
      </g>
    </g>
    <g
       id="g3283"
       transform="translate(8.1649484,20.412371)">
      <g
         inkscape:transform-center-x="-16.63217"
         inkscape:transform-center-y="11.048857"
         transform="matrix(-0.4279439,0.2758868,0.3120292,0.453441,716.36214,258.45898)"
         id="g2458"
         style="fill:#ffffff;fill-opacity:1;display:inline">
        <g
           transform="translate(9.7590892,32.595513)"
           style="fill:#ffffff;fill-opacity:1"
           id="g2460">
          <path
             sodipodi:nodetypes="ccccccccccccccccccc"
             id="path2462"
             style="fill:#ffffff;fill-opacity:1;fill-rule:evenodd;stroke:#000000;stroke-width:5.6681304;stroke-linecap:butt;stroke-linejoin:miter;stroke-miterlimit:4;stroke-dasharray:none;stroke-opacity:1"
             d="M 22.436978,32.810252 L 45.4403,18.44982 C 50.63445,13.84645 59.66523,10.65431 70.10122,6.05094 C 75.05617,6.02818 94.958239,0.17260503 98.488619,1.574405 L 134.6557,10.398017 C 144.8029,21.588008 95.388472,13.989843 99.69433,20.4227 C 125.81893,32.662406 144.25822,39.883088 153.60269,48.11521 C 150.6295,55.831253 151.193,57.038708 140.14164,53.643252 L 112.48447,44.009936 L 137.34066,68.561113 C 138.61832,76.172463 134.68769,78.377175 128.78675,75.218395 L 101.84438,51.681683 L 125.36627,77.369746 C 127.03916,79.706286 123.20759,85.086689 118.25905,83.119599 C 111.75992,80.066899 101.22089,65.214362 90.154816,59.828482 C 100.69179,68.614979 106.23418,87.101686 104.44403,88.259967 C 95.155842,89.652317 89.8272,78.19319 71.23528,60.91349 C 60.64083,60.27837 48.36159,62.3389 35.82428,64.81236 L 22.436978,32.810252 z" />
        </g>
      </g>
      <g
         inkscape:transform-center-y="19.709086"
         transform="matrix(0.5902481,-0.1530158,0.1933301,0.608859,937.53336,265.58814)"
         id="g4072"
         style="fill:#ffffff;fill-opacity:1;display:inline">
        <g
           style="fill:#ffffff;fill-opacity:1"
           id="g4074">
          <path
             sodipodi:nodetypes="cccccsscscccccscccc"
             id="path4076"
             style="fill:#ffffff;fill-opacity:1;fill-rule:evenodd;stroke:#000000;stroke-width:4.81025982;stroke-linecap:butt;stroke-linejoin:miter;stroke-miterlimit:4;stroke-dasharray:none;stroke-opacity:1"
             d="M 35.57593,18.44982 L 45.4403,18.44982 C 58.344423,18.091919 61.009478,11.394515 70.10122,6.05094 C 77.66828,2.6636668 115.35846,3.6150682 118.84492,5.0734435 L 98.941207,20.233427 C 130.37334,29.108386 130.55673,41.038261 141.17575,51.287739 C 168.93365,78.079649 141.21894,71.482739 135.03231,64.097956 L 117.45019,43.11075 L 126.63875,56.764695 C 131.07775,63.360922 124.91284,70.617969 119.0119,67.459189 L 103.24411,54.65275 L 116.12944,66.987263 C 117.80233,69.323803 116.64801,78.068497 111.69947,76.101407 C 105.20034,73.048707 104.55226,68.944129 93.486193,63.558249 C 104.14565,69.226709 106.50316,73.333978 109.34052,75.191398 C 112.23538,77.086468 107.53775,75.191442 106.7612,76.278192 C 95.64283,83.258193 89.647715,78.741167 71.23528,60.91349 C 60.64083,60.27837 48.36159,62.3389 35.82428,64.81236 L 35.57593,18.44982 z" />
        </g>
      </g>
      <g
         style="fill:#ffffff"
         transform="matrix(0.3248769,0,0,0.4650008,723.89378,399.48962)"
         id="g2324">
        <path
           d="M 103.57295,60.636607 L 106.30449,55.719797 C 117.67653,48.388411 129.01251,35.662453 138.54591,29.372626 C 141.43704,27.246935 142.03817,27.259158 144.32717,29.745642 C 165.61365,52.795377 171.19054,55.940215 194.26087,58.724498 C 218.93855,60.823796 239.87802,53.534551 256.2674,50.256671 C 261.38098,70.743406 249.36201,91.230141 245.88746,111.71688 L 206.55292,113.08265 L 199.99716,95.600634 C 186.6125,92.343824 173.22782,108.43668 159.84316,115.54105 C 142.26778,119.35184 123.57115,119.96191 105.48504,117.45316 C 76.761751,113.46895 60.027413,103.69698 49.487956,75.387057 C 48.086534,72.272678 48.271257,68.365238 49.782964,63.794295 L 53.312132,61.182924 C 68.491649,73.687296 83.662339,67.573626 103.57295,60.636607 z"
           style="fill:#ffffff;fill-rule:evenodd;stroke:#000000;stroke-width:8.87943172;stroke-linecap:butt;stroke-linejoin:miter;stroke-miterlimit:4;stroke-dasharray:none;stroke-opacity:1"
           id="path2285" />
        <path
           d="M 104.11924,60.909765 C 123.60875,84.5183 157.55572,81.019028 187.97829,84.128064 C 190.15649,80.416228 193.09692,78.092877 193.94328,70.99411 C 184.52867,67.231891 175.98061,59.626589 163.66736,48.61772"
           style="fill:#ffffff;fill-rule:evenodd;stroke:#000000;stroke-width:8.87943172;stroke-linecap:butt;stroke-linejoin:miter;stroke-miterlimit:4;stroke-dasharray:none;stroke-opacity:1"
           id="path2289" />
        <path
           d="M 105.75817,56.81241 C 115.59575,78.024604 158.05222,77.640793 189.07091,81.396501"
           style="fill:#ffffff;fill-rule:evenodd;stroke:#000000;stroke-width:8.87943172;stroke-linecap:butt;stroke-linejoin:miter;stroke-miterlimit:4;stroke-dasharray:none;stroke-opacity:1"
           id="path2291" />
      </g>
      <g
         style="fill:#ffffff"
         transform="matrix(-0.3248769,0,0,0.4650008,962.88744,397.53565)"
         id="g2736">
        <path
           d="M 103.57295,60.636607 L 106.30449,55.719797 C 117.67653,48.388411 129.01251,35.662453 138.54591,29.372626 C 141.43704,27.246935 142.03817,27.259158 144.32717,29.745642 C 165.61365,52.795377 171.19054,55.940215 194.26087,58.724498 C 218.93855,60.823796 239.87802,53.534551 256.2674,50.256671 C 261.38098,70.743406 249.36201,91.230141 245.88746,111.71688 L 206.55292,113.08265 L 199.99716,95.600634 C 186.6125,92.343824 173.22782,108.43668 159.84316,115.54105 C 142.26778,119.35184 123.57115,119.96191 105.48504,117.45316 C 76.761751,113.46895 60.027413,103.69698 49.487956,75.387057 C 48.086534,72.272678 48.271257,68.365238 49.782964,63.794295 L 53.312132,61.182924 C 68.491649,73.687296 83.662339,67.573626 103.57295,60.636607 z"
           style="fill:#ffffff;fill-rule:evenodd;stroke:#000000;stroke-width:8.87943172;stroke-linecap:butt;stroke-linejoin:miter;stroke-miterlimit:4;stroke-dasharray:none;stroke-opacity:1"
           id="path2738" />
        <path
           d="M 104.11924,60.909765 C 123.60875,84.5183 157.55572,81.019028 187.97829,84.128064 C 190.15649,80.416228 193.09692,78.092877 193.94328,70.99411 C 184.52867,67.231891 175.98061,59.626589 163.66736,48.61772"
           style="fill:#ffffff;fill-rule:evenodd;stroke:#000000;stroke-width:8.87943172;stroke-linecap:butt;stroke-linejoin:miter;stroke-miterlimit:4;stroke-dasharray:none;stroke-opacity:1"
           id="path2740" />
        <path
           d="M 105.75817,56.81241 C 115.59575,78.024604 158.05222,77.640793 189.07091,81.396501"
           style="fill:#ffffff;fill-rule:evenodd;stroke:#000000;stroke-width:8.87943172;stroke-linecap:butt;stroke-linejoin:miter;stroke-miterlimit:4;stroke-dasharray:none;stroke-opacity:1"
           id="path2742" />
      </g>
      <path
         style="fill:#ffffff;fill-rule:evenodd;stroke:#000000;stroke-width:4;stroke-linecap:butt;stroke-linejoin:miter;stroke-miterlimit:4;stroke-dasharray:none;stroke-opacity:1"
         d="M 825.73102,409.75475 C 837.57628,385.58539 792.92157,352.2973 849.05459,349.35718 C 875.95274,347.94831 881.98652,366.16922 870.53905,383.87515 C 865.88383,391.07542 862.98349,409.05871 872.23553,418.08826 C 880.49637,426.15044 924.13668,433.89635 929.37147,397.41299 C 931.90387,379.76366 905.63226,336.0466 922.62892,324.65792 C 931.58527,315.10279 943.72013,327.26532 957.04281,325.33144 C 969.27122,323.5564 972.27491,309.77768 972.46441,297.10517 C 972.6909,281.95873 964.77334,263.21304 951.73013,263.63565 C 937.98382,264.08105 945.81903,276.03635 932.936,272.73286 C 910.57913,264.68517 918.53307,235.36169 910.73794,228.24576 C 885.47865,235.62365 868.90892,236.2424 865.5011,219.40281 C 860.7719,196.03371 881.59743,207.09264 877.86108,176.71562 C 873.08845,137.91355 841.8694,138.5122 839.3767,138.75173 C 827.67722,139.87598 799.64094,147.53439 805.47878,184.4169 C 808.15567,201.32906 827.92998,215.88541 820.52465,221.98389 C 809.55151,232.75528 781.24717,226.43955 766.34353,227.13936 C 776.99036,260.65503 784.10203,278.95166 765.60088,286.78574 C 754.48309,288.86318 747.02945,274.30002 733.5241,270.62575 C 721.00787,267.22059 713.98141,287.34415 714.2269,301.98975 C 714.46231,316.03388 717.84276,327.11777 729.90794,329.00619 C 739.75045,330.54672 753.37491,315.46968 772.09997,328.47746 C 781.82761,335.91517 778.07848,367.85256 765.55335,387.01385 C 740.2798,425.678 814.58674,438.53463 825.73102,409.75475 z"
         id="path2012"
         sodipodi:nodetypes="csssscsssccsssscccssscsc" />
      <g
         transform="matrix(0.4120012,0,0,0.3894975,921.7445,193.5384)"
         style="fill:#ffffff"
         id="g3321">
        <path
           style="fill:#000000;fill-opacity:1;fill-rule:evenodd;stroke:#000000;stroke-width:2.49630976px;stroke-linecap:butt;stroke-linejoin:miter;stroke-opacity:1"
           d="M -319.72718,151.95576 L -319.72718,165.71061 C -308.47312,167.39065 -301.01704,171.96387 -294.22475,186.34288 L -230.4686,321.31227 L -220.44977,321.31227 L -140.27891,177.69903 C -134.99688,165.80223 -125.54403,161.37775 -114.79267,162.17774 L -113.88592,151.09608 L -167.82922,151.09608 C -167.82922,151.09608 -168.90165,165.38219 -166.9184,164.94506 C -157.25561,162.81533 -149.54865,170.01711 -155.77065,181.3731 L -214.07415,287.78484 L -266.90067,179.46544 C -266.10767,175.17776 -272.42419,165.25422 -252.12188,164.85093 L -252.12188,151.95576 L -319.72718,151.95576 z"
           id="path2489"
           sodipodi:nodetypes="ccsccscccsscsccc" />
        <path
           sodipodi:nodetypes="ccsccscccsscsccc"
           id="use3263"
           d="M -236.2228,152.49283 L -237.12955,164.28761 C -224.51275,165.94976 -219.10543,167.97918 -214.8804,181.97982 L -149.17705,320.04499 L -140.08008,320.04499 L -75.516545,180.6724 C -72.031353,170.83726 -64.717386,164.1061 -49.321347,164.40007 L -49.321347,151.64231 L -102.30125,151.64231 C -102.30125,151.64231 -103.275,163.98201 -101.47423,163.54954 C -92.700536,161.4425 -83.961086,166.46091 -88.882248,178.00837 L -135.6641,287.78151 L -188.25696,179.7094 C -190.13973,175.84053 -193.27225,165.64958 -174.83798,165.25059 L -174.83798,152.49283 L -236.2228,152.49283 z"
           style="fill:#000000;fill-opacity:1;fill-rule:evenodd;stroke:#000000;stroke-width:2.36567497px;stroke-linecap:butt;stroke-linejoin:miter;stroke-opacity:1" />
      </g>
    </g>
    <g
       id="g2651"
       transform="translate(560.6598,-8.1649485)">
      <path
         sodipodi:nodetypes="ccccccsscscccccccssscccccccccccccccccscccccscccsccccccsccccccccccscccccccssscccccsccsssccsccsccccccccccccccccccccccccsccccccccccccscccccccccccccccccccccccccccccccccccscccccssccccccccccccccccccccccsscccccccscccccccccsccccccccssccccccccccccccscccccccscccccscccccscc"
         style="opacity:1;fill:#fcef3c;fill-opacity:1;stroke:#000000;stroke-width:1.73623645;stroke-opacity:1"
         id="path3707"
         d="M 526.33421,122.01624 C 526.22841,121.26389 524.13427,117.06523 524.08137,116.22437 L 524.08137,114.58691 C 524.39928,114.85289 524.71613,115.11798 525.0864,115.42777 C 525.50961,115.73756 525.93277,116.0916 526.35542,116.4014 C 530.32272,119.1448 535.2427,120.3844 541.16669,120.16313 C 541.16669,120.16313 541.2725,120.16313 541.32591,120.16313 C 541.4312,120.16313 541.48461,120.16313 541.59041,120.16313 C 541.64331,120.16313 541.69566,120.16313 541.69566,120.16313 C 541.80146,120.16313 541.90726,120.16313 541.96016,120.16313 C 548.99762,120.25031 555.23952,118.34732 560.63506,114.36431 C 566.82351,109.89449 569.94499,103.12382 569.99734,94.183738 C 570.20894,92.634785 570.89661,91.749674 572.11324,91.528393 C 573.06592,91.39563 574.28256,91.661165 575.86949,92.457767 C 576.50426,90.333496 575.12893,89.094337 571.79639,88.828802 L 571.74349,88.828802 C 571.69008,88.784547 571.58428,88.784547 571.53189,88.784547 C 569.41603,89.094337 567.88199,89.935193 566.92982,91.307117 C 566.77112,91.528393 566.61246,91.749674 566.50666,92.015209 C 566.61246,91.749674 566.77112,91.528393 566.92982,91.307117 C 567.88199,89.934752 569.41603,89.094337 571.53189,88.784547 C 571.58479,88.740293 571.69059,88.740293 571.74349,88.740293 C 576.76877,84.093449 578.72541,80.818532 577.56219,78.959352 C 576.76877,77.498916 575.55158,76.481034 573.80598,75.994225 C 576.18635,78.251701 575.23417,80.243207 570.95002,81.924479 C 567.03562,82.986616 564.60236,85.641953 563.70309,89.757726 C 562.64516,86.350046 561.11112,83.738515 559.10102,82.012992 C 556.61486,79.976786 554.18155,76.835082 551.74829,72.719305 C 550.37295,69.9312 549.73818,67.408627 549.79159,65.06308 C 549.79159,64.487755 549.89689,63.956688 550.00269,63.425622 L 550.00269,63.381363 C 550.37295,61.876672 551.16642,60.858794 552.38305,60.194959 C 554.0234,59.309844 555.98009,59.309844 558.14885,60.150705 C 558.99522,60.947303 558.94232,61.655396 557.99019,62.274975 C 560.21134,62.097953 561.11061,61.345606 560.5816,59.973679 C 560.31714,59.619634 559.99974,59.309844 559.68238,59.000055 C 557.83093,57.451109 555.08082,56.920043 551.43037,57.539619 C 551.37747,57.583877 551.32457,57.583877 551.21877,57.583877 C 551.11352,57.628132 550.95431,57.716641 550.84902,57.760899 C 548.5739,58.557501 547.25147,60.194959 546.7225,62.62902 L 546.7225,62.62902 C 545.08266,57.406855 544.50135,51.786387 545.03032,45.723363 C 545.34768,42.492701 546.93462,39.217784 549.89633,35.987122 C 553.65258,32.977738 556.7201,31.473046 559.31263,31.561558 C 561.85169,31.650069 564.23205,32.313903 566.559,33.597317 C 568.83412,34.880731 569.78629,37.182024 569.52179,40.412686 C 569.20387,42.492701 567.67039,44.085905 564.97211,45.236551 C 564.81341,45.280807 564.76102,45.369318 564.65471,45.413574 C 564.17864,45.590597 563.59678,45.811875 562.96201,45.988897 C 562.69751,46.033153 562.43305,46.121664 562.16854,46.16592 C 560.95191,46.47571 559.68238,46.077408 558.4657,45.14804 C 557.67228,44.307183 557.51357,43.068025 557.88384,41.430566 C 555.50347,43.687603 555.34477,45.811875 557.46067,47.759123 C 559.15286,49.352327 561.37456,49.617858 564.07284,48.688491 C 564.65471,48.467213 565.28947,48.201679 565.97714,47.847634 C 565.28947,48.201679 564.65471,48.467213 564.07284,48.688491 C 561.11006,52.007664 562.43249,53.999171 568.09304,54.485979 C 568.67491,54.530237 569.30967,54.574492 569.99734,54.574492 C 565.71268,54.131934 564.65471,52.937033 566.82351,51.078294 C 567.14142,50.768508 567.51169,50.458719 568.0407,50.148929 C 568.41045,49.883394 568.72836,49.617858 569.15152,49.396581 C 575.86949,45.679108 578.35566,40.855243 576.66296,34.969242 C 575.12893,31.296024 572.27245,28.419407 567.98779,26.472159 C 567.30013,26.162369 566.55956,25.896835 565.76609,25.54279 C 564.23261,25.54279 562.80382,25.587046 561.42904,25.719812 C 560.1595,25.941091 559.20733,26.295136 558.46626,26.737692 C 559.20682,26.295136 560.15895,25.941091 561.42904,25.719812 C 562.80437,25.587046 564.23261,25.54279 565.76609,25.54279 C 566.66536,25.587046 567.61749,25.631301 568.57017,25.675557 C 570.79132,25.764068 572.69617,25.144489 574.22965,23.861076 C 576.82162,21.471271 578.40856,18.815932 578.93752,15.850804 C 579.04332,13.859743 578.51436,11.868239 577.29773,9.8767348 C 577.24427,9.8324794 577.24427,9.7882237 577.24427,9.7882237 C 577.08562,9.5669452 576.92691,9.4341784 576.76877,9.2571561 C 576.71531,9.1686446 576.66296,9.1243888 576.66296,9.0801335 C 576.45136,8.9031108 576.29266,8.7703439 576.08054,8.5933212 C 575.39288,8.0179979 574.54706,7.5311857 573.54148,7.1771408 C 573.48858,7.1328851 573.38278,7.1328851 573.33043,7.0886293 C 572.48355,6.8230955 571.63769,6.5575617 570.63211,6.3805391 C 568.78071,6.2035164 567.03511,6.6018175 565.44817,7.5311857 C 563.86124,8.8145997 563.43807,10.009502 564.17864,11.027382 C 564.17864,11.071637 564.17864,11.115893 564.23205,11.160149 C 564.28495,11.115893 564.28495,11.027382 564.33785,10.983126 C 564.97211,9.4341784 566.66481,8.5933212 569.46838,8.3720433 C 570.68556,8.4162986 571.69008,8.5933212 572.43116,8.9031108 C 573.06592,9.1686446 573.54199,9.5226899 573.91229,9.9209906 C 574.0181,10.053757 574.071,10.186524 574.17675,10.319291 C 574.28256,10.452058 574.33546,10.673337 574.44126,10.894615 C 574.81152,13.505698 574.071,15.497201 572.21955,16.913382 C 569.83919,18.727863 566.92982,19.303187 563.43858,18.595097 C 559.94684,17.887006 557.19672,18.196796 555.13372,19.568721 C 555.08082,19.568721 555.08082,19.568721 555.08082,19.568721 C 553.49388,20.852135 552.27674,22.356826 551.48327,24.127052 C 552.27674,22.356826 553.49388,20.852135 555.08082,19.568721 L 555.08082,19.524465 C 554.39264,16.603593 552.5412,14.435066 549.63187,12.930374 C 547.62178,12.355051 545.40007,12.133773 542.91442,12.399306 L 542.91442,12.399306 C 539.42267,12.841863 537.30677,14.258044 536.61966,16.692104 C 536.14355,18.418074 536.72541,19.922766 538.41815,21.117668 C 539.42267,21.692991 540.58695,21.781503 541.96173,21.250435 C 539.58137,20.630856 538.7879,19.524465 539.63478,17.887006 C 540.26955,17.223172 541.38038,16.824871 543.01971,16.824871 C 544.5537,16.869127 545.77033,17.44445 546.6696,18.506585 C 547.72753,20.498089 548.04494,22.179804 547.56887,23.684496 C 547.41017,24.259819 547.09277,24.790887 546.6696,25.277699 C 542.12044,30.632632 539.42267,36.518632 538.5234,42.979956 C 537.99443,48.069355 537.94153,51.786828 538.20604,54.132379 C 538.25894,54.973236 538.4176,55.814092 538.5234,56.743462 C 538.7879,58.425174 539.15816,60.328168 539.58137,62.363929 C 540.26955,65.506078 542.06753,69.9759 545.03032,75.906598 C 546.458,79.004493 548.30944,81.350044 550.6898,82.898989 C 551.43037,83.341547 552.01224,83.739405 552.647,84.181962 C 554.55186,85.59814 555.66218,87.103275 555.92664,88.652221 C 555.08031,86.970508 553.54627,85.952188 551.32457,85.554326 C 550.95431,85.509631 550.58455,85.421558 550.21374,85.421558 C 548.36234,85.200282 546.5109,85.376863 544.7124,85.864116 C 543.54867,85.952188 542.4378,85.952188 541.43277,85.775607 C 539.42267,85.421558 537.72993,84.536447 536.40749,83.164524 C 535.08506,81.350044 535.66748,79.447491 538.10024,77.499802 C 535.45537,77.898101 533.70973,79.048747 532.7047,80.995995 C 532.17574,82.810476 532.22915,84.403239 532.9692,85.819416 C 534.8206,88.0322 537.14807,89.094337 539.95163,88.962014 C 540.16324,88.962014 540.32194,88.962014 540.53405,88.962014 C 540.32245,89.050082 540.16374,89.183291 539.95163,89.271359 C 538.10024,90.289683 535.87853,91.041585 533.28657,91.528838 C 535.08455,92.546717 537.30677,92.59053 539.95163,91.661606 C 536.19594,94.007157 534.9264,96.662494 536.09014,99.671879 C 537.83573,102.85828 540.6393,104.40723 544.6066,104.18596 L 544.66006,104.18596 C 544.71291,104.1417 544.76581,104.1417 544.8711,104.1417 C 545.24137,104.097 545.55928,104.05319 545.92903,104.00893 C 549.10287,102.99061 550.4253,101.66294 550.00214,100.02592 C 548.7855,101.48636 546.98701,102.10549 544.76581,101.92891 C 542.12094,101.22038 540.79851,99.716134 540.85141,97.282074 C 541.16882,95.821637 541.90939,94.715246 543.02022,93.918199 C 544.34265,92.988833 546.2475,92.457767 548.68026,92.457767 C 554.60476,92.94502 558.30755,94.670546 559.73579,97.635673 C 561.05822,100.77783 561.26927,103.65444 560.31765,106.39829 C 558.67786,110.07151 555.29242,112.86006 550.16135,114.71835 C 546.98752,115.64816 543.9729,116.00177 541.16882,116.00177 C 538.36525,115.91325 535.72038,115.38219 533.23422,114.36431 C 530.16614,112.63878 527.04572,111.04513 524.08294,109.54088 C 524.08294,109.49619 523.97714,109.49619 523.97714,109.49619 C 520.1691,107.2834 516.99522,104.23021 514.45565,100.33527 C 513.08031,98.122489 512.07524,95.821637 511.65208,93.564158 C 511.65208,93.519904 511.65208,93.519904 511.65208,93.475645 C 511.28177,90.687537 510.64756,87.899436 509.64198,85.111773 L 509.80068,84.979005 C 511.38757,86.173465 512.97451,86.749227 514.50855,86.704531 C 511.96943,84.757724 510.17094,82.500245 509.16536,79.977672 C 509.11246,79.756395 509.11246,79.579814 509.11246,79.313838 L 508.84851,79.358092 C 507.47317,79.977231 505.83333,80.243207 503.98193,80.154694 C 501.86603,79.977672 500.17334,79.402351 498.74563,78.384472 C 497.26398,77.36659 496.15366,75.950412 495.41257,74.091673 C 494.46042,74.622743 493.50827,75.021483 492.55664,75.330832 C 492.55664,75.419341 492.50374,75.464041 492.45084,75.552109 C 490.49364,78.252145 487.84877,80.243648 484.41044,81.526621 C 483.56408,81.836411 482.66483,82.102387 481.76558,82.323664 C 482.40034,81.792597 482.87642,81.217276 483.2996,80.641506 C 484.19885,79.313838 484.46334,77.898101 484.14596,76.481919 C 482.71773,76.791713 481.50109,77.278521 480.44314,77.986169 C 480.01996,78.252145 479.64968,78.605749 479.2794,78.959797 C 477.1635,80.862787 477.1635,82.810035 479.17361,84.890051 C 477.63958,85.066632 476.52874,84.757283 475.73527,83.916423 C 475.47079,83.606637 475.25919,83.296843 475.10051,82.942803 C 475.04761,82.810035 475.04761,82.766221 474.99471,82.677267 C 474.30704,80.862342 474.94182,79.048306 476.89901,77.233826 C 477.2693,76.879337 477.63958,76.569992 478.06276,76.260198 C 474.67733,77.321894 472.72012,79.048306 472.29694,81.526176 C 472.56143,82.721081 473.14331,83.872168 474.04256,84.890051 C 474.04256,84.934305 474.14835,85.022815 474.20125,85.066632 C 474.51863,85.421117 474.94182,85.818975 475.36499,86.173024 C 475.41789,86.217719 475.41789,86.217719 475.41789,86.217719 C 472.61433,85.686649 470.33974,84.402798 468.64702,82.234714 C 467.74777,80.862342 467.64198,79.136815 468.38254,76.968287 C 468.38254,76.968287 468.38254,76.968287 468.43543,76.924032 C 468.59413,76.304452 468.91151,75.684873 469.22889,74.976784 L 465.1558,77.36659 C 463.46308,78.118937 461.40008,78.51724 459.0197,78.472981 L 458.9668,78.472981 C 457.69726,78.605749 456.48063,78.870839 455.36978,79.225329 C 453.30679,79.844467 451.56117,80.907045 450.08004,82.367478 C 448.9692,81.659389 448.70471,80.597252 449.33948,79.313838 C 449.65686,78.91598 449.97425,78.51724 450.34453,78.119382 L 448.38733,78.561935 L 434.8985,89.625849 C 434.26372,90.112661 434.15793,90.643723 434.52821,91.041585 C 432.30652,91.174794 430.56091,91.661165 429.34427,92.723743 C 428.8153,93.210555 428.33922,93.653109 427.70445,94.13948 C 426.27622,95.334384 424.42481,96.352263 422.36181,97.370583 C 421.35677,97.768441 420.29882,97.945908 419.24087,97.945908 C 418.5532,97.901212 417.86554,97.81314 417.12497,97.636118 L 416.96628,97.591859 L 414.05693,97.104606 C 412.47001,97.016097 411.51785,97.281633 411.25337,97.989721 C 411.20047,98.166744 411.20047,98.343766 411.25337,98.520792 C 411.35916,98.874832 411.67654,99.096109 412.36421,99.228881 C 414.16272,99.450158 415.11487,99.84846 415.27356,100.46848 C 415.74964,101.57487 415.43225,102.32678 414.37431,102.72552 C 414.85039,104.45149 416.22572,105.51362 418.4474,106.00044 C 418.5532,104.53955 419.39956,103.61063 420.98649,103.21189 L 423.04948,105.20339 L 425.53566,103.25658 C 426.48781,102.32678 426.80519,101.22038 426.54071,99.937411 C 426.80519,101.22038 426.48781,102.32678 425.53566,103.25658 L 423.04948,105.20339 C 421.99153,106.44299 421.35677,107.68215 421.09228,108.92086 L 422.15022,110.69109 C 422.6263,109.62896 423.68425,109.23065 425.37696,109.36342 C 427.01678,109.80597 427.91604,110.69109 428.07474,111.93025 C 429.18558,112.63878 430.93119,112.7711 433.25868,112.3728 C 432.14783,111.48769 431.46017,110.51407 431.14278,109.40768 C 431.08989,109.36342 431.08989,109.36342 431.08989,109.36342 C 430.98409,108.87661 430.87829,108.30128 430.87829,107.72596 C 430.87829,108.30128 430.98409,108.87705 431.08989,109.36342 L 431.61886,109.27491 C 433.20578,108.34554 434.95139,108.08001 436.7499,108.52256 C 438.97159,106.61957 440.24113,104.71658 440.55851,102.90254 C 440.61141,102.90254 440.61141,102.90254 440.61141,102.85784 C 441.72226,105.60169 444.26133,106.26553 448.38733,104.80509 C 445.26638,105.07063 444.63161,104.14125 446.64171,102.10505 C 446.69461,102.14975 446.74751,102.14975 446.8533,102.14975 C 448.70471,101.48591 449.70977,100.6008 449.76266,99.494412 C 449.76266,99.361644 449.76266,99.228436 449.76266,99.096109 C 449.81556,99.184626 449.92135,99.31739 449.92135,99.405903 C 449.92135,99.405903 449.92135,99.405903 449.97425,99.450158 C 450.76771,100.91104 451.50828,101.44166 452.09014,101.17613 C 452.46042,98.609301 453.35968,96.750562 454.73501,95.688425 C 454.62922,98.742069 455.58137,100.37997 457.69726,100.68976 C 458.01465,98.919532 458.43783,97.414837 458.9668,96.130986 C 459.0197,96.086728 459.0197,95.998219 459.0726,95.954405 C 459.81316,94.272688 460.81821,93.122042 462.03485,92.32544 C 462.14065,93.741622 461.66457,95.202058 460.55373,96.618239 C 462.66962,95.909702 464.36234,94.848013 465.68477,93.387577 C 466.68982,92.015209 467.113,90.51096 467.0601,88.873501 C 469.22889,92.281186 469.1231,95.467148 466.79562,98.43272 L 473.2491,94.139921 C 473.88387,93.742067 474.57153,93.343323 475.25919,92.989274 C 478.06276,91.484584 481.13081,90.687986 484.46334,90.555214 C 481.13081,90.687986 478.06276,91.484584 475.25919,92.989274 C 474.57153,93.343323 473.88387,93.741622 473.2491,94.139921 C 473.72517,96.707189 473.2491,98.565487 471.87376,99.848901 C 474.25415,100.07018 476.05266,98.831019 477.1635,96.219936 C 477.2693,95.99866 477.32219,95.822078 477.42799,95.600802 C 476.84612,97.946349 477.48089,99.583807 479.33229,100.60169 C 483.1938,102.10594 487.214,103.12426 491.34,103.65488 C 491.92187,103.7881 492.50374,103.92086 493.03272,104.09744 C 493.4559,104.23065 493.82618,104.40723 494.24935,104.5847 C 494.7249,104.71746 495.14809,104.93874 495.57179,105.20383 C 497.52847,106.26597 499.11539,107.7264 500.49125,109.6741 C 500.96681,108.61196 500.91441,107.28429 500.33255,105.73535 C 499.53909,104.67365 498.58641,103.78854 497.52847,102.99149 C 496.8408,102.54894 496.15313,102.15108 495.46599,101.84085 C 496.15366,102.15063 496.84133,102.54894 497.52847,102.99149 C 498.58641,103.78854 499.53909,104.67365 500.33255,105.73535 C 500.91441,107.28429 500.96681,108.61196 500.49125,109.6741 C 500.43784,109.6741 500.38545,109.71835 500.43784,109.76261 C 499.59146,111.04558 499.11539,112.37325 498.9567,113.87838 C 498.9038,114.09966 498.9038,114.36519 498.9038,114.58647 C 498.9038,115.51629 498.9567,116.48946 499.11486,117.46309 C 499.85542,118.83546 502.21407,120.75458 502.05536,121.90523" />
      <path
         style="opacity:1;fill:#fcef3c;fill-opacity:1;stroke:#000000;stroke-width:1.73623645;stroke-opacity:1"
         d="M 497.89875,9.7882237 C 491.09045,12.019785 483.64674,11.552748 476.64731,13.115968 C 472.44178,13.907346 468.17542,14.874542 464.4676,16.869127 C 463.96935,19.497117 468.26834,19.411749 468.17042,17.355939 C 467.24575,18.89841 464.45298,20.535429 466.86782,22.935521 C 469.00649,25.652739 472.47854,28.364781 476.46684,27.779958 C 482.36775,27.906162 489.33331,28.962039 492.76336,33.69941 C 495.2679,37.868715 488.70606,38.917749 485.42667,38.186484 C 480.97536,38.074475 475.73682,35.113841 471.7691,37.403745 C 473.59007,40.603931 468.88029,41.956812 465.89583,40.767174 C 467.4701,44.668212 473.62787,42.603526 475.25867,41.608031 C 473.01431,42.50939 470.0151,49.228253 473.39321,45.130677 C 475.13631,43.640766 483.04801,41.788034 478.77242,45.449283 C 476.14959,47.006138 477.16286,47.011677 479.65659,46.369662 C 482.9862,46.50259 485.35783,41.307948 486.55887,45.414017 C 490.02074,47.80551 487.8183,44.271427 489.64676,42.758678 C 490.43201,45.251564 496.78975,47.764931 496.86104,46.63995 C 494.74629,45.193632 493.72536,40.293546 497.15124,43.488896 C 500.25416,45.866457 499.02195,36.695952 501.78617,40.079828 C 503.21354,41.590121 510.19626,42.828048 505.8598,40.183552 C 502.968,37.992372 502.83835,30.900932 506.02622,30.358108 C 507.86214,31.061645 508.51078,35.126461 508.2278,31.465591 C 509.01187,28.830985 503.25177,26.068932 503.91469,26.318398 C 508.97795,28.249599 513.49385,23.967425 511.4855,19.622571 C 510.69137,15.905977 502.94641,17.44113 503.51781,17.799187 C 506.7679,15.802396 512.45915,17.805942 511.81023,21.692991 C 513.47337,26.79679 504.44062,26.959813 503.78087,26.400869 C 507.25538,26.559482 509.13842,32.882331 507.95514,32.64393 C 507.18128,29.653103 503.60725,29.521156 504.04166,32.962017 C 502.86063,36.308677 504.63164,39.804736 507.73768,41.785054 C 504.87209,42.426725 501.6964,39.508882 500.53672,39.508653 C 498.91036,41.89319 499.16397,45.702028 495.4857,42.51337 C 492.9365,41.973597 497.67718,47.591365 496.83735,47.044593 C 493.6357,47.137019 490.89687,43.921442 489.2898,43.104943 C 488.19892,44.868225 489.69638,47.556691 486.55887,45.414017 C 485.36366,42.559731 484.82238,44.10323 482.58487,45.354569 C 480.77496,46.282342 474.32382,47.924082 478.77242,45.449282 C 484.49347,41.061146 469.64328,44.483264 474.29329,46.481684 C 476.29547,50.729825 468.70592,46.983927 466.44082,47.7995 C 462.98676,48.865944 458.69434,47.174311 458.64889,43.599535 C 453.37079,44.931701 456.34228,50.470873 460.4669,50.998447 C 462.14447,51.606983 466.22978,51.285964 461.93927,51.817255 C 456.35396,51.813999 455.0312,57.559368 450.91926,58.878796 C 448.72321,58.666354 445.86011,55.334658 448.32646,58.688635 C 449.63881,60.468617 452.98132,64.039732 454.3766,63.359594 C 453.86056,61.312537 459.06548,57.948583 455.40562,60.851628 C 454.07966,63.794931 453.90292,68.948335 448.73672,68.433778 C 446.36646,68.269654 446.33443,63.22244 444.3666,66.745238 C 443.06683,71.301911 449.52627,73.04895 453.47156,72.138452 C 458.30465,71.655014 458.84131,66.459989 462.66909,64.797545 C 458.98819,66.403769 458.42312,71.085492 454.15261,72.099725 C 451.91777,73.108458 447.38234,71.149414 450.98011,74.178832 C 454.58661,76.740506 458.545,72.010472 462.58052,71.64647 C 465.05065,70.727822 467.26724,65.706511 464.56327,70.231151 C 461.33511,73.194978 455.94134,72.859742 452.71695,75.952487 C 450.49847,77.032692 447.01817,82.015772 450.64744,81.837687 C 454.18714,78.188457 459.86438,78.917799 464.50324,77.631066 C 466.17345,76.897952 467.64419,75.846374 469.22837,74.975906 C 467.43495,77.995752 467.17397,82.236844 470.79349,84.306816 C 472.32383,85.536636 477.52441,87.420337 473.71969,84.50141 C 470.59775,81.543386 473.70607,77.419534 477.44422,76.46619 C 479.50501,75.593737 473.53791,79.338166 474.72639,81.315337 C 473.87437,84.559173 481.60181,86.727627 477.7653,82.600373 C 476.24974,79.379818 485.87083,73.527148 484.04573,79.114464 C 483.31005,81.235793 480.3185,83.259258 484.40991,81.525735 C 487.58778,80.459133 491.34731,77.652579 492.34452,75.418455 C 490.49847,75.954448 485.36108,76.537974 489.72279,74.348023 C 491.64127,72.945239 492.86258,67.807304 491.28657,72.364816 C 491.0479,74.175957 485.10325,76.598379 490.07655,75.833188 C 493.85417,75.697822 496.2307,73.767414 495.61785,70.333897 C 495.95619,68.440877 499.54903,65.059532 496.53745,68.394516 C 493.5767,72.405322 496.14453,78.042129 501.1052,79.584023 C 503.11791,80.732464 509.37531,80.075603 509.11246,78.781889 C 503.97173,78.549687 499.85903,73.719175 504.66854,70.417126 C 505.66336,69.017154 506.52917,64.948841 505.53521,68.624773 C 505.03589,70.655471 501.26499,73.635949 505.71308,71.695264 C 509.86568,70.322979 512.49272,65.983433 510.7523,62.185576 C 511.89879,64.616904 511.1671,67.587279 509.21775,69.488202 C 513.77513,70.913738 519.35227,70.245388 523.12509,67.545793 C 524.87154,65.715539 517.77364,68.805504 515.94177,66.689034 C 513.80111,65.491542 513.83746,64.814168 516.20175,64.797108 C 511.47296,66.303263 518.71596,59.293702 519.87445,63.313568 C 521.67365,67.597343 522.41566,59.590302 519.90459,58.335779 C 524.59893,60.855778 531.87282,61.778765 535.71172,57.540993 C 534.90945,57.402878 528.79978,58.498187 526.02059,57.008107 C 522.92248,56.035739 518.0539,53.064868 518.375,50.742735 C 520.90203,49.1701 527.32667,48.615486 524.02735,52.804352 C 522.98315,54.763208 531.22135,50.006464 527.66125,47.658932 C 526.09747,44.90424 519.87096,42.665774 519.75994,41.377656 C 521.02491,45.800238 530.31527,42.942912 529.18034,41.477837 C 525.83841,43.43641 521.21559,41.478281 520.69751,37.933928 C 523.77208,34.509572 527.09634,43.810553 527.20197,38.035847 C 527.01577,33.941244 521.42373,33.455039 519.00481,30.720258 C 516.98218,28.771238 521.65381,33.579938 523.71213,32.534739 C 527.65137,33.417324 529.36275,25.323757 525.69943,29.682325 C 520.23565,31.531041 519.32966,25.027917 518.30098,21.849076 C 517.25911,19.820987 513.68987,18.696672 518.06313,18.436292 C 521.57753,16.510028 518.86511,16.863617 516.36415,17.166535 C 513.76251,14.301632 509.43826,11.326457 504.77489,12.663955 C 506.56889,12.349123 515.28141,12.977345 511.37627,10.666798 C 507.10154,9.4655482 502.30832,8.8348 497.89875,9.7882237 z M 505.51597,20.232555 C 500.98795,21.357771 507.07784,20.226788 508.10743,18.639352 C 505.79633,19.85719 505.56868,20.339973 507.79002,21.781503 C 507.26663,23.496049 505.82053,24.751276 507.58917,22.481295 C 508.37866,21.590717 506.23594,20.268229 505.51597,20.232555 z M 486.47291,16.338059 C 490.27427,15.596288 492.23909,20.812926 495.47402,19.681712 C 496.7194,19.252057 493.08109,20.013403 492.29887,20.135528 C 489.76362,20.726188 485.11802,21.52872 485.24553,18.061954 C 486.17246,16.490568 486.82863,15.925097 484.30412,16.559337 C 484.13489,15.071639 487.55996,13.658171 484.75375,15.369967 C 483.12406,17.609389 485.42216,15.970005 486.47291,16.338059 z M 497.52847,34.925428 C 497.1672,33.458436 495.22069,30.166116 496.92676,33.326694 C 499.48267,35.540279 494.73861,39.585114 494.36745,39.232251 C 496.05409,38.344541 497.85871,36.844031 497.52847,34.925428 z M 493.29667,28.419849 C 491.45587,25.978059 485.01125,24.98285 484.19357,25.38635 C 487.57391,25.020254 490.8874,26.385064 493.29667,28.419849 z"
         id="path3709" />
      <path
         style="opacity:1;fill:#fcef3c;fill-opacity:1;stroke:#000000;stroke-width:1.73623645000000000;stroke-opacity:1"
         id="path3713"
         d="M 489.32937,20.630856 C 489.48806,20.586601 489.64676,20.586601 489.85835,20.586601 L 493.78424,20.144044 C 492.40891,18.904886 491.02209,17.798495 489.11778,16.824871 C 484.78474,14.408934 482.53918,21.233994 489.32937,20.630856 z"
         sodipodi:nodetypes="ccccc" />
      <path
         id="path3715"
         style="opacity:1;fill:#fcef3c;fill-opacity:1;stroke:#000000;stroke-width:1.73623645;stroke-opacity:1"
         d="M 477.48036,30.986677 L 477.95643,27.844526 C 476.6869,27.756015 475.25867,27.756015 473.77754,27.80027 C 473.72464,27.756015 473.72464,27.756015 473.72464,27.756015 C 473.67175,27.756015 473.67175,27.756015 473.67175,27.756015 L 473.67175,27.80027 L 473.67175,27.844526 L 475.47026,31.163699 L 476.21082,32.093068 L 476.21082,32.093068 L 477.48036,30.986677 z" />
      <path
         id="path3717"
         style="opacity:1;fill:#fcef3c;fill-opacity:1;stroke:#000000;stroke-width:1.73623645;stroke-opacity:1"
         d="M 476.14643,32.756902 L 477.90354,35.279474 C 481.18317,35.146707 484.46281,35.190963 487.84825,35.456497 C 489.85835,35.589263 491.39237,36.208843 492.39742,37.315234 C 493.66696,36.208843 493.61406,34.792662 492.34452,33.066692 C 491.92135,32.57988 491.44527,32.093068 490.8634,31.650511 C 488.64171,31.207955 486.42002,30.986677 484.25122,30.986677 C 482.13533,31.030932 479.91364,31.030932 477.48036,30.986677 L 476.21082,32.093068 L 476.21082,32.093068 L 475.47026,31.163699 C 472.45511,31.163699 469.59865,31.163699 466.90088,31.119444 C 465.20817,30.986677 463.56835,29.880286 461.98143,27.888782 C 461.24086,28.641128 460.97637,29.659007 461.18796,30.809654 C 461.92853,32.756902 463.35676,33.99606 465.47266,34.482873 C 468.27621,35.235218 471.18557,35.589263 474.30651,35.500752 C 474.41231,35.456497 474.51811,35.456497 474.6239,35.456497 L 476.14643,32.756902 z"
         sodipodi:nodetypes="cccccccccccccccccc" />
      <path
         id="path3719"
         style="opacity:1;fill:#fcef3c;fill-opacity:1;stroke:#000000;stroke-width:1.73623645;stroke-opacity:1"
         d="M 477.90354,35.279474 L 475.89343,32.756902 L 474.6239,35.456497 L 474.20072,36.607143 C 476.15792,36.562888 477.90354,36.695655 479.33177,37.0497 L 477.90354,35.279474 z" />
      <path
         style="opacity:1;fill:#fcef3c;fill-opacity:1;stroke:#000000;stroke-width:1.73623645;stroke-opacity:1"
         id="path3725"
         d="M 438.75948,22.937494 C 438.70658,22.937494 438.65368,22.848982 438.60078,22.848982 C 436.85517,22.981749 435.26825,22.450682 433.84002,21.078757 C 433.04656,19.972365 432.51758,18.865975 432.1473,17.671072 C 432.04151,17.228516 431.93572,16.830215 431.88281,16.387659 C 432.62337,14.7502 432.41179,13.201252 431.35384,11.785072 C 430.03141,11.608049 429.29084,11.785072 428.92056,12.360395 C 428.86766,12.360395 428.86766,12.360395 428.86766,12.404651 C 429.55533,13.820831 429.44954,15.148501 428.65608,16.343403 L 428.65608,16.343403 C 427.65102,16.608937 426.85756,16.387659 426.1699,15.768079 C 426.1699,15.723824 426.1699,15.679568 426.117,15.635313 C 425.27064,15.45829 424.63587,15.679568 424.31849,16.254891 C 423.52503,17.494049 423.15475,18.600441 423.20764,19.61832 C 423.57792,20.060877 424.0011,20.414922 424.53008,20.724711 C 425.21775,21.078757 425.90541,21.300034 426.75177,21.300034 C 426.91046,22.273659 426.32859,23.07026 424.95326,23.822606 C 424.90036,23.822606 424.90036,23.822606 424.90036,23.866862 C 426.80467,25.150275 429.07925,25.637088 431.77702,25.371554 C 429.07925,25.637088 426.80467,25.150275 424.90036,23.866862 C 424.90036,23.822606 424.90036,23.822606 424.95326,23.822606 C 424.31849,23.38005 423.36634,23.026005 422.1497,22.848982 C 420.66857,22.981749 419.45193,23.291539 418.55267,23.734095 C 418.0766,24.043885 417.86501,24.220908 417.86501,24.39793 C 417.81211,24.530697 417.9708,24.619208 418.23529,24.707719 C 419.76931,24.619208 420.88016,24.928998 421.56782,25.681344 C 422.30839,27.274547 421.56782,28.646472 419.29323,29.664351 C 418.71137,30.549464 418.76426,31.346066 419.34614,31.965645 C 420.35119,32.496713 421.30334,32.762246 422.2026,32.673735 C 423.31344,31.655855 424.0011,30.637976 424.37139,29.620096 C 424.90036,30.770742 424.90036,31.788622 424.37139,32.717991 C 426.117,33.33757 427.59812,33.204803 428.86766,32.231179 C 429.07925,32.098412 429.29084,31.877133 429.50243,31.655855 C 429.29084,31.877133 429.07925,32.098412 428.86766,32.231179 C 427.86261,33.204803 427.22785,34.266938 427.01626,35.37333 C 427.22785,35.329074 427.43943,35.329074 427.65102,35.329074 C 429.87271,35.107795 431.56543,35.550352 432.57048,36.47972 L 432.51758,36.700999 L 427.70392,36.656743 C 427.75682,38.072924 428.60318,39.090803 430.1901,39.754638 C 431.77702,40.374217 434.1045,40.684007 437.11966,40.639751 C 434.1045,40.684007 431.77702,40.374217 430.1901,39.754638 C 427.54523,41.657631 426.48728,43.870413 426.96336,46.348729 C 427.54523,45.596383 428.44449,45.109571 429.55533,44.976804 C 429.66113,44.932548 429.76692,44.932548 429.87271,44.932548 C 429.92561,44.888292 430.03141,44.888292 430.0843,44.888292 C 430.1372,44.888292 430.1901,44.888292 430.1901,44.888292 C 432.30599,44.71127 435.26825,45.375104 439.07686,46.835541 C 436.53778,48.074699 433.57553,47.986188 430.1901,46.658518 C 431.93572,49.402369 435.10955,50.420248 439.71162,49.800668 L 439.76453,49.933436 C 437.01386,50.641525 434.79217,51.836429 432.94076,53.562397 L 432.94076,53.606655 C 432.88786,53.65091 432.83497,53.695165 432.83497,53.695165 L 432.83497,53.739423 C 432.88786,53.695165 432.99366,53.695165 432.99366,53.695165 L 433.04656,53.695165 C 436.32619,52.810053 439.81742,52.765799 443.67893,53.473888 C 439.39424,53.9607 436.64358,54.668789 435.37404,55.686671 C 434.63348,56.261992 434.42189,56.925827 434.68638,57.722428 C 438.2834,56.571782 442.3036,57.058594 446.64118,59.13861 L 446.58829,59.227119 L 446.48249,59.4484 C 442.56808,59.094355 440.39929,59.536909 439.87032,60.776068 C 440.2935,60.776068 440.66378,60.820323 441.08696,60.864581 C 444.04921,61.26288 446.3767,62.103737 448.2281,63.342896 C 446.11221,64.095244 443.62603,63.741195 440.76957,62.369272 C 441.61593,64.095244 443.09706,65.422912 445.21295,66.219514 C 445.79483,65.599934 446.64118,65.24589 447.75203,65.157377 C 447.75203,65.113122 447.75203,65.113122 447.80493,65.157377 C 447.91072,65.113122 448.06941,65.113122 448.17521,65.113122 C 448.01651,65.201631 447.85782,65.334399 447.75203,65.467167 C 447.69913,65.511421 447.59334,65.55568 447.59334,65.55568 C 447.17016,65.909724 446.85278,66.308023 446.69408,66.662067 C 446.85278,66.706326 447.01146,66.750581 447.22306,66.794835 C 447.27595,66.839094 447.32885,66.839094 447.38175,66.839094 C 448.65129,67.06037 450.07952,67.193138 451.66644,67.193138 C 449.70923,67.37016 448.12231,67.67995 446.85278,68.166762 C 447.01146,68.255271 447.11726,68.388039 447.27595,68.520806 C 448.49259,69.494431 449.92082,69.58294 451.61354,68.653574 C 453.30625,67.768459 454.20551,66.485045 454.3642,64.759078 C 452.83018,63.918221 451.50774,62.944593 450.2911,61.749692 C 450.23821,61.749692 450.23821,61.749692 450.23821,61.749692 C 449.33895,60.820323 448.49259,59.802444 447.75203,58.651798 C 447.54044,58.342008 447.27595,57.943709 447.11726,57.589661 C 449.97372,60.156489 452.19541,60.377769 453.72943,58.253495 C 455.05187,55.022837 458.4373,53.03133 463.88573,52.278983 L 463.88573,52.278983 C 459.81263,52.146219 457.11487,50.818547 455.68664,48.16321 C 455.36926,46.481496 456.4272,45.242338 458.64889,44.401481 C 458.80758,46.525751 460.07712,48.030443 462.66909,48.915557 C 462.82778,48.871299 463.03937,48.871299 463.25096,48.871299 L 462.98648,47.410864 C 462.03432,46.127451 460.97637,44.844037 459.97133,43.649135 C 455.84533,38.603991 451.29615,33.603104 446.3767,28.690727 C 444.2079,26.522201 441.66883,24.619208 438.75948,22.937494 z" />
      <path
         id="path3721"
         style="opacity:1;fill:#fcef3c;fill-opacity:1;stroke:#000000;stroke-width:1.73623645;stroke-opacity:1"
         d="M 445.00136,10.319291 C 445.16006,9.9209906 445.26586,9.5226899 445.31875,9.1686446 C 445.42455,8.0622537 445.00136,6.9558624 444.10211,5.8494716 C 444.04921,5.8052158 444.04921,5.76096 444.04921,5.7167047 C 441.98621,3.5481778 439.81742,2.6630649 437.48994,3.0613662 C 435.85012,3.4596667 434.95087,4.2120129 434.68638,5.2741481 C 436.85517,5.0971255 438.38919,5.4069153 439.34134,6.292028 C 440.1877,7.1328851 440.39929,8.0622537 439.87032,9.0358777 C 439.92322,9.0358777 439.97612,9.0358777 440.08191,9.0801335 C 440.50509,10.319291 441.51014,11.204404 443.09706,11.735472 C 444.2079,11.514194 444.84267,11.071637 445.00136,10.319291 z" />
      <path
         style="opacity:1;fill:#fcef3c;fill-opacity:1;stroke:#000000;stroke-width:1.73623645;stroke-opacity:1"
         id="path3723"
         d="M 445.31875,9.1686446 C 445.26586,9.5226899 445.16006,9.9209906 445.00136,10.319291 C 444.84267,11.071637 444.2079,11.514194 443.09706,11.735472 C 441.51014,11.204404 440.50509,10.319291 440.08191,9.0801335 C 439.97612,9.0358777 439.92322,9.0358777 439.87032,9.0358777 C 438.44209,8.5048101 437.43704,8.637577 436.96097,9.4784341 C 436.2733,10.717592 436.1146,12.222284 436.53778,13.992509 C 435.37404,15.851247 433.94581,16.824871 432.2002,16.869127 L 432.1473,16.869127 C 432.51758,18.064029 433.04656,19.17042 433.84002,20.276811 C 435.26825,21.648736 436.85517,22.179804 438.60078,22.047037 C 438.65368,22.047037 438.70658,22.135548 438.75948,22.135548 L 438.97106,21.825758 C 440.98116,19.48021 442.77968,16.957638 444.3137,14.390811 C 444.94847,13.284419 446.05931,12.26654 447.64623,11.337171 C 447.85782,10.584825 447.59334,9.7882237 447.01146,9.0801335 L 445.31875,9.1686446 z" />
      <path
         id="path3727"
         style="opacity:1;fill:#fcef3c;fill-opacity:1;stroke:#000000;stroke-width:1.73623645;stroke-opacity:1"
         d="M 428.86766,11.602705 C 428.81477,11.558449 428.81477,11.514194 428.81477,11.469938 C 428.2329,10.186524 427.06915,9.4341784 425.32354,9.1243888 C 423.41924,9.1686446 421.62072,9.611201 419.82221,10.54057 C 418.71137,11.337171 418.0237,12.355051 417.70631,13.638465 C 419.34614,12.886119 421.09175,12.532073 422.89026,12.620585 C 424.58297,13.107397 425.64092,13.859743 426.117,14.833367 C 426.1699,14.877622 426.1699,14.921878 426.1699,14.966134 C 426.85756,15.585713 427.65102,15.806991 428.65608,15.541457 L 428.65608,15.541457 C 429.44954,14.346555 429.55533,13.018886 428.86766,11.602705 z" />
      <path
         id="path3729"
         style="opacity:1;fill:#fcef3c;fill-opacity:1;stroke:#000000;stroke-width:1.73623645;stroke-opacity:1"
         d="M 421.56782,24.879398 C 420.88016,24.127052 419.76931,23.817263 418.23529,23.905774 C 417.9708,23.817263 417.81211,23.728751 417.86501,23.595984 L 417.70631,23.773007 C 416.75416,23.773007 415.85491,24.038541 414.95565,24.569609 C 412.94555,26.030045 411.57022,27.578992 410.98834,29.260707 C 410.93545,30.367098 411.09414,31.207955 411.46442,31.783278 C 412.15209,32.801158 413.10424,33.332226 414.32088,33.420737 C 413.9506,31.650511 414.53247,30.101564 416.17229,28.81815 C 417.70631,28.154316 418.76426,28.198571 419.29323,28.862406 C 421.56782,27.844526 422.30839,26.472601 421.56782,24.879398 z" />
      <path
         style="opacity:1;fill:#fcef3c;fill-opacity:1;stroke:#000000;stroke-width:1.73623645;stroke-opacity:1"
         id="path3731"
         d="M 446.218,71.215055 C 445.26586,70.639734 444.63108,69.932086 444.3666,68.958017 C 443.78473,69.577156 443.41444,70.329944 443.25575,71.126101 C 443.04416,72.763559 444.2608,73.69337 446.95857,74.047418 C 445.47744,72.941027 445.26586,72.011661 446.218,71.215055 z" />
      <path
         style="opacity:1;fill:#fcef3c;fill-opacity:1;stroke:#000000;stroke-width:1.73623645;stroke-opacity:1"
         id="path3733"
         d="M 418.97585,87.10283 C 419.13454,87.899436 418.92296,88.65178 418.39398,89.404127 C 417.12445,90.244538 415.53752,90.819864 413.68612,91.129649 C 412.94555,91.66072 412.78686,92.280745 413.21004,92.855621 C 414.63827,92.944134 415.74911,93.209669 416.70127,93.652223 L 418.87006,93.253924 L 416.70127,93.652223 C 416.96575,93.829249 417.28314,94.050526 417.54762,94.271802 C 418.60557,95.732242 419.18744,96.927143 419.24034,97.945022 C 420.29829,97.945022 421.35624,97.768 422.36129,97.369697 C 424.42428,96.351373 426.27569,95.333499 427.70392,94.138594 C 425.85251,93.430505 424.31849,92.235604 422.99605,90.598142 C 422.83736,89.358982 422.2026,88.119827 421.09175,86.881113 C 420.24539,86.527509 419.55772,86.616022 418.97585,87.10283 z" />
      <path
         id="path3735"
         style="opacity:1;fill:#fcef3c;fill-opacity:1;stroke:#000000;stroke-width:1.73623645;stroke-opacity:1"
         d="M 418.39398,89.404127 C 418.92296,88.65178 419.13454,87.899436 418.97585,87.10283 C 418.87006,86.836858 418.76426,86.527509 418.55267,86.217719 C 416.33099,85.686649 413.9506,85.553885 411.51732,85.951743 C 409.08404,86.306228 407.65581,87.367925 407.23263,89.094337 C 406.80946,90.864559 407.23263,91.926255 408.44927,92.324999 C 409.18983,90.599028 410.45937,89.713917 412.15209,89.713917 C 413.58032,89.890939 414.0564,90.377751 413.68612,91.130098 C 415.53752,90.820304 417.12445,90.244979 418.39398,89.404127 z" />
      <path
         id="path3737"
         style="opacity:1;fill:#fcef3c;fill-opacity:1;stroke:#000000;stroke-width:1.73623645;stroke-opacity:1"
         d="M 412.36368,99.228881 C 411.67601,99.096109 411.35863,98.874832 411.25283,98.520792 C 409.29563,98.742069 407.81451,99.62718 406.91525,101.17613 C 406.28048,102.94635 406.43917,104.45105 407.49712,105.73446 C 408.13189,107.19489 409.34853,108.16852 411.09414,108.61108 C 410.35358,107.3281 410.14199,106.00044 410.45937,104.53955 C 410.77676,103.52167 411.57022,103.07912 412.62817,103.12382 C 413.36873,103.0353 413.9506,102.90254 414.37378,102.72552 C 415.43173,102.32722 415.74911,101.57487 415.27304,100.46848 C 415.11435,99.84846 414.16219,99.450158 412.36368,99.228881 z" />
      <path
         id="path3739"
         style="opacity:1;fill:#fcef3c;fill-opacity:1;stroke:#000000;stroke-width:1.73623645;stroke-opacity:1"
         d="M 428.2329,115.42644 C 427.65102,114.40857 427.54523,113.21366 428.0742,111.93025 C 427.91551,110.69109 427.01626,109.80597 425.37644,109.36342 C 423.68372,109.23065 422.62577,109.62896 422.1497,110.69109 C 421.72652,112.01876 421.83231,113.21366 422.46708,114.32005 C 423.31344,116.13453 424.68877,117.32944 426.54018,118.03708 C 427.38654,118.34688 428.28579,118.43539 429.13215,118.25836 C 430.66617,117.94902 431.61833,117.50646 432.0944,116.88644 C 430.40169,116.84263 429.13215,116.40007 428.2329,115.42644 z" />
      <path
         style="opacity:1;fill:#fcef3c;fill-opacity:1;stroke:#000000;stroke-width:1.73623645;stroke-opacity:1"
         id="path3743"
         d="M 510.6999,72.71975 C 511.28177,71.834635 511.96943,70.993778 512.76291,70.197177 C 511.75788,70.108663 510.7523,69.931641 509.85353,69.66611 L 508.90085,69.798878 C 507.57842,71.038478 505.67412,71.923589 503.08216,72.409956 C 501.97132,73.560606 501.86552,74.666998 502.8711,75.77339 C 504.66909,77.455547 506.6797,78.428727 509.11301,78.783216 C 509.16591,76.791268 509.64198,74.755507 510.6999,72.71975 z" />
      <path
         style="opacity:1;fill:#fcef3c;fill-opacity:1;stroke:#000000;stroke-width:1.73623645;stroke-opacity:1"
         id="path3747"
         d="M 493.61406,105.60169 C 492.97929,105.82297 492.55611,106.0885 492.08003,106.39829 C 491.28657,106.88555 490.7576,107.72596 490.49312,108.92086 C 495.14809,109.00938 497.95217,110.60258 498.9038,113.74473 C 498.9567,113.78899 498.9567,113.78899 498.9567,113.8775 C 499.11539,112.3728 499.59146,111.04513 500.43784,109.76172 C 500.38494,109.71702 500.43784,109.67321 500.49125,109.67321 C 499.11539,107.72596 497.52847,106.26553 495.57179,105.20295 C 494.8307,105.2919 494.19593,105.42467 493.61406,105.60169 z" />
      <path
         style="opacity:1;fill:#fcef3c;fill-opacity:1;stroke:#000000;stroke-width:1.73623645;stroke-opacity:1"
         id="path3761"
         d="M 567.98779,55.991114 L 567.93489,56.123882 L 567.98779,55.991114 L 567.98779,55.991114 z" />
    </g>
  </g>
  <g
     inkscape:groupmode="layer"
     id="layer2"
     inkscape:label="Reflet final"
     style="display:inline"
     transform="translate(-617.60149,66.421106)"
     sodipodi:insensitive="true">
    <path
       sodipodi:nodetypes="cccccc"
       d="M 917.6015,592.0789 C 917.6015,592.0789 1216.1015,479.75859 1216.1015,194.30707 C 1216.1015,-91.144431 1216.1015,-64.24461 1216.1015,-64.24461 L 619.10149,-64.24461 L 619.10149,194.30707 C 619.10149,479.75859 917.6015,592.0789 917.6015,592.0789 z"
       style="opacity:1;fill:url(#radialGradient3163);fill-opacity:1;fill-rule:evenodd;stroke:#000000;stroke-width:3;stroke-linecap:butt;stroke-linejoin:miter;stroke-miterlimit:4;stroke-dasharray:none;stroke-opacity:1"
       id="path2875"
       inkscape:export-xdpi="144"
       inkscape:export-ydpi="144" />
  </g>
</svg>
